# AST/ASF file generated using VICON BodyLanguage
# -----------------------------------------------
:version 1.10
:name VICON
:units
  mass 1.0
  length 0.45
  angle deg
:documentation
   .ast/.asf automatically generated from VICON data using
   VICON BodyBuilder and BodyLanguage model FoxedUp or BRILLIANT.MOD
:root
   order TX TY TZ RX RY RZ
   axis XYZ
   position 0 0 0  
   orientation 0 0 0 
:bonedata
  begin
     id 1 
     name lhipjoint
     direction 0.645897 -0.709066 0.282916 
     length 2.50918 
     axis 0 0 0  XYZ
  end
  begin
     id 2 
     name lfemur
     direction 0.34202 -0.939693 0  
     length 6.85725  
     axis 0 0 20  XYZ
    dof rx ry rz
    limits (-160.0 20.0)
           (-70.0 70.0)
           (-60.0 70.0)
  end
  begin
     id 3 
     name ltibia
     direction 0.34202 -0.939693 0   
     length 8.01778   
     axis 0 0 20   XYZ
    dof rx
    limits (-10.0 170.0)
  end
  begin
     id 4 
     name lfoot
     direction 0.0796011 -0.218702 0.972539   
     length 2.13962   
     axis -90 7.62852e-016 20   XYZ
    dof rx rz
    limits (-45.0 90.0)
           (-70.0 20.0)
  end
  begin
     id 5 
     name ltoes
     direction 1.53548e-011 -4.21881e-011 1   
     length 1.07476   
     axis -90 7.62852e-016 20   XYZ
    dof rx
    limits (-90.0 20.0)
  end
  begin
     id 6 
     name rhipjoint
     direction -0.63101 -0.720537 0.287493   
     length 2.46923  
     axis 0 0 0  XYZ 
  end
  begin
     id 7 
     name rfemur
     direction -0.34202 -0.939693 0   
     length 6.81957   
     axis 0 0 -20   XYZ
    dof rx ry rz
    limits (-160.0 20.0)
           (-70.0 70.0)
           (-70.0 60.0)
  end
  begin
     id 8 
     name rtibia
     direction -0.34202 -0.939693 0   
     length 8.15152   
     axis 0 0 -20   XYZ
    dof rx
    limits (-10.0 170.0)
 end
 begin
     id 9 
     name rfoot
     direction -0.105819 -0.290734 0.950934   
     length 2.14588  
     axis -90 -7.62852e-016 -20   XYZ
    dof rx rz
    limits (-45.0 90.0)
           (-20.0 70.0)
  end
  begin
     id 10 
     name rtoes
     direction -1.53512e-011 -4.22005e-011 1   
     length 1.0703   
     axis -90 -7.62852e-016 -20   XYZ
    dof rx
    limits (-90.0 20.0)
  end
  begin
     id 11 
     name lowerback
     direction 0.0114933 0.999236 0.0373542   
     length 1.91711   
     axis 0 0 0   XYZ
    dof rx ry rz
    limits (-20.0 45.0)
           (-30.0 30.0)
           (-30.0 30.0)
  end
  begin
     id 12 
     name upperback
     direction 0.00911529 0.998099 0.0609554   
     length 1.90888   
     axis 0 0 0   XYZ
    dof rx ry rz
    limits (-20.0 45.0)
           (-30.0 30.0)
           (-30.0 30.0)
  end
  begin
     id 13 
     name thorax
     direction 0.00357322 0.99911 0.0420379   
     length 1.90942   
     axis 0 0 0   XYZ
    dof rx ry rz
    limits (-20.0 45.0)
           (-30.0 30.0)
           (-30.0 30.0)
  end
  begin
     id 14 
     name lowerneck
     direction -0.0589311 0.997882 0.0275448   
     length 1.83956   
     axis 0 0 0   XYZ
    dof rx ry rz
    limits (-20.0 45.0)
           (-30.0 30.0)
           (-30.0 30.0)
  end
  begin
     id 15 
     name upperneck
     direction 0.0362633 0.960055 -0.277453   
     length 1.82031   
     axis 0 0 0   XYZ
    dof rx ry rz
    limits (-20.0 45.0)
           (-30.0 30.0)
           (-30.0 30.0)
  end
  begin
     id 16
     name head
     direction 0.0166719 0.995328 -0.0951042  
     length 1.86084  
     axis 0 0 0   XYZ
    dof rx ry rz
    limits (-20.0 45.0)
           (-30.0 30.0)
           (-30.0 30.0)
  end
  begin
     id 17 
     name lclavicle
     direction 0.90319 0.426238 0.0506919  
     length 3.17828  
     axis 0 0 0   XYZ
    dof ry rz
    limits (-20.0 10.0)
           (0.0 20.0)
  end
  begin
     id 18 
     name lhumerus
     direction 1 -4.48953e-011 6.78797e-028   
     length 5.43592   
     axis 180 -30 -90   XYZ
    dof rx ry rz
    limits (-60.0 90.0)
           (-90.0 90.0)
           (-90.0 90.0)
  end
  begin
     id 19
     name lradius
     direction 1 -4.48969e-011 7.02702e-027   
     length 3.2546   
     axis 180 -30 -90   XYZ
    dof rx
    limits (-10.0 170.0)
  end
  begin
     id 20
     name lwrist
     direction 1 -4.48975e-011 1.29807e-026   
     length 1.6273   
     axis -8.50346e-015 90 90   XYZ
    dof ry
    limits (-180.0 0.0)
 end
  begin
     id 21 
     name lhand
     direction 1 -4.48917e-011 2.59615e-026   
     length 0.498244   
     axis -1.65656e-014 90 90   XYZ
    dof rx rz
    limits (-90.0 90.0)
           (-45.0 45.0)
  end
  begin
     id 22 
     name lfingers
     direction 1 -4.48885e-011 5.1923e-026   
     length 0.401697   
     axis -3.31313e-014 90 90   XYZ
    dof rx
    limits (0.0 90.0)
  end
  begin
     id 23
     name lthumb
     direction 0.707107 -6.34946e-011 0.707107   
     length 0.576759   
     axis -90 45 2.85299e-015   XYZ
    dof rx rz
    limits (-45.0 45.0)
           (-45.0 45.0)
  end
  begin
     id 24 
     name rclavicle
     direction -0.908603 0.391432 0.145676   
     length 3.15477  
     axis 0 0 0   XYZ 
    dof ry rz
    limits (-10.0 20.0)
           (-20.0 0.0)
  end
  begin
     id 25 
     name rhumerus
     direction -1 -4.4898e-011 1.02852e-027  
     length 5.3383   
     axis 180 30 90   XYZ
    dof rx ry rz
    limits (-90.0 60.0)
           (-90.0 90.0)
           (-90.0 90.0)
  end
  begin
     id 26 
     name rradius
     direction -1 -4.48968e-011 7.05567e-027   
     length 3.23148   
     axis 180 30 90   XYZ
    dof rx
    limits (-10.0 170.0)
  end
  begin
     id 27 
     name rwrist
     direction -1 -4.48927e-011 1.29807e-026   
     length 1.61574   
     axis -8.50346e-015 -90 -90   XYZ
    dof ry
    limits (-180.0 0.0)
  end
  begin
     id 28
     name rhand
     direction -1 -4.48905e-011 2.59615e-026   
     length 0.463641   
     axis -1.65656e-014 -90 -90   XYZ
    dof rx rz
    limits (-90.0 90.0)
           (-45.0 45.0)
  end
  begin
     id 29
     name rfingers
     direction -1 -4.49167e-011 5.1923e-026   
     length 0.373799   
     axis -3.31313e-014 -90 -90   XYZ
    dof rx
    limits (0.0 90.0)
  end
  begin
     id 30
     name rthumb
     direction -0.707107 -6.34954e-011 0.707107   
     length 0.536703   
     axis -90 -45 -2.85299e-015   XYZ
    dof rx rz
    limits (-45.0 45.0)
           (-45.0 45.0)
  end
:hierarchy
  begin
    root lhipjoint rhipjoint lowerback
    lhipjoint lfemur
    lfemur ltibia
    ltibia lfoot
    lfoot ltoes
    rhipjoint rfemur
    rfemur rtibia
    rtibia rfoot
    rfoot rtoes
    lowerback upperback
    upperback thorax
    thorax lowerneck lclavicle rclavicle
    lowerneck upperneck
    upperneck head
    lclavicle lhumerus
    lhumerus lradius
    lradius lwrist
    lwrist lhand lthumb
    lhand lfingers
    rclavicle rhumerus
    rhumerus rradius
    rradius rwrist
    rwrist rhand rthumb
    rhand rfingers
  end

#!OML:ASF F:\VICON\USERDATA\INSTALL\rory3\rory3.ASF
:FULLY-SPECIFIED
:DEGREES
141
root 4.06622 17.6238 3.21199 20.0337 -5.54437 -6.30684
lowerback -4.0322 -0.93808 5.51008
upperback -9.60335 -1.02559 3.89781
thorax -7.87668 -0.763205 1.07095
lowerneck -11.9025 6.30262 3.62388
upperneck 33.4351 7.95758 0.94896
head 13.329 4.05825 0.914774
rclavicle -6.11263e-015 4.49253e-014
rhumerus 12.0424 -22.9596 6.38458
rradius 113.304
rwrist -55.3109
rhand -4.42439 -45.3235
rfingers 7.12502
rthumb 21.3464 -74.1678
lclavicle -6.11263e-015 4.49253e-014
lhumerus 38.3101 28.2817 -9.5159
lradius 30.9838
lwrist 36.5256
lhand -21.1998 -16.5019
lfingers 7.12502
lthumb 5.18144 13.4147
rfemur -11.969 7.661 1.64964
rtibia 18.0128
rfoot 20.6938 -7.49677
rtoes -34.3758
lfemur -28.8416 -3.53364 -19.0145
ltibia 25.6847
lfoot -14.7 7.59379
ltoes 9.22347
142
root 4.06663 17.6211 3.20648 20.0137 -5.60283 -6.18189
lowerback -4.08238 -0.93162 5.28757
upperback -9.54775 -1.02626 3.89152
thorax -7.77811 -0.745611 1.18353
lowerneck -11.9647 6.14077 3.30183
upperneck 33.6938 7.80869 0.943936
head 13.4337 3.94825 0.953455
rclavicle 9.75287e-015 -8.34896e-015
rhumerus 12.4214 -22.8431 6.08722
rradius 113.223
rwrist -55.0438
rhand -4.48963 -45.1336
rfingers 7.12502
rthumb 21.2837 -73.985
lclavicle 9.75287e-015 -8.34896e-015
lhumerus 38.9771 28.5952 -8.58184
lradius 30.845
lwrist 35.6599
lhand -21.4059 -16.6088
lfingers 7.12502
lthumb 4.98242 13.3126
rfemur -11.9814 7.67656 1.48028
rtibia 18.0105
rfoot 20.7711 -7.42981
rtoes -34.3652
lfemur -28.9114 -3.37884 -19.2076
ltibia 25.8106
lfoot -14.775 7.42988
ltoes 9.49718
143
root 4.07182 17.6198 3.20078 20.0093 -5.46343 -6.2253
lowerback -4.20567 -0.923997 5.38714
upperback -9.42921 -1.03201 3.88625
thorax -7.57935 -0.751822 1.11502
lowerneck -12.5257 5.95689 2.81432
upperneck 34.2238 7.5589 1.24672
head 13.7427 3.80571 1.15352
rclavicle -5.26779e-015 -1.94809e-014
rhumerus 12.8421 -22.7095 5.73638
rradius 113.098
rwrist -54.8898
rhand -5.4614 -45.081
rfingers 7.12502
rthumb 20.35 -74.0348
lclavicle -5.26779e-015 -1.94809e-014
lhumerus 39.1021 28.4557 -8.51608
lradius 31.1013
lwrist 35.9326
lhand -22.4445 -16.8106
lfingers 7.12502
lthumb 3.97949 13.1319
rfemur -11.9183 7.53544 1.55777
rtibia 17.9743
rfoot 20.8158 -7.37111
rtoes -34.608
lfemur -29.0071 -3.36375 -19.1732
ltibia 25.9624
lfoot -14.8124 7.27972
ltoes 9.32185
144
root 4.07808 17.6213 3.18871 20.074 -5.29524 -6.53493
lowerback -4.26195 -0.881093 5.76952
upperback -9.32179 -0.981219 3.92187
thorax -7.44011 -0.748639 0.934483
lowerneck -12.9641 5.78817 2.59943
upperneck 34.5792 7.33058 1.34243
head 13.9797 3.68234 1.22062
rclavicle 3.02898e-014 -2.18663e-014
rhumerus 13.1765 -22.5487 5.42581
rradius 112.98
rwrist -54.6524
rhand -6.40185 -45.0028
rfingers 7.12502
rthumb 19.446 -74.0504
lclavicle 3.02898e-014 -2.18663e-014
lhumerus 39.0416 28.0974 -8.80802
lradius 31.4645
lwrist 36.5946
lhand -22.3657 -16.8085
lfingers 7.12502
lthumb 4.05559 13.1327
rfemur -11.9161 7.46008 1.91943
rtibia 17.8529
rfoot 20.8112 -7.36556
rtoes -34.6763
lfemur -29.212 -3.33268 -18.8332
ltibia 26.1528
lfoot -14.7677 7.24867
ltoes 8.50786
145
root 4.08551 17.6216 3.17445 20.0716 -5.18325 -6.76144
lowerback -4.13455 -0.868174 6.04788
upperback -9.24716 -0.954271 3.93907
thorax -7.44028 -0.752745 0.798777
lowerneck -13.1374 5.65267 2.6279
upperneck 34.7593 7.17608 1.18195
head 14.1085 3.59207 1.14008
rclavicle 3.52967e-014 -4.69132e-014
rhumerus 13.5774 -22.3936 5.00676
rradius 112.829
rwrist -54.2538
rhand -6.47556 -44.809
rfingers 7.12502
rthumb 19.3751 -73.8637
lclavicle 3.52967e-014 -4.69132e-014
lhumerus 39.5994 28.3504 -8.19272
lradius 31.3904
lwrist 36.0489
lhand -21.4692 -16.8709
lfingers 7.12502
lthumb 4.92132 13.052
rfemur -11.8194 7.38756 2.17672
rtibia 17.658
rfoot 20.817 -7.35996
rtoes -34.4547
lfemur -29.3711 -3.25283 -18.6122
ltibia 26.3705
lfoot -14.7909 7.16711
ltoes 8.27974
146
root 4.09281 17.6203 3.16629 20.0026 -5.06196 -6.8541
lowerback -4.02422 -0.905088 6.21637
upperback -9.16893 -0.997533 3.93261
thorax -7.42548 -0.784712 0.700093
lowerneck -13.283 5.47835 2.52921
upperneck 34.9969 6.95932 1.13721
head 14.2445 3.47352 1.11672
rclavicle 1.75179e-015 3.77691e-014
rhumerus 14.3886 -22.3857 4.14594
rradius 112.526
rwrist -53.9711
rhand -5.75955 -44.8884
rfingers 7.12502
rthumb 20.0635 -73.8725
lclavicle 1.75179e-015 3.77691e-014
lhumerus 40.4173 28.8779 -7.14485
lradius 31.1325
lwrist 35.0289
lhand -21.7983 -17.1362
lfingers 7.12502
lthumb 4.60352 12.7938
rfemur -11.6251 7.19698 2.3132
rtibia 17.5146
rfoot 20.9249 -7.30973
rtoes -34.0531
lfemur -29.4338 -3.19572 -18.5517
ltibia 26.5701
lfoot -14.8626 7.02829
ltoes 8.46671
147
root 4.0948 17.6191 3.1589 19.9789 -4.93902 -6.90089
lowerback -4.09924 -0.953469 6.26546
upperback -8.9913 -1.07975 3.94087
thorax -7.19133 -0.821957 0.674965
lowerneck -13.7008 5.24887 2.15459
upperneck 35.2967 6.64671 1.33857
head 14.4456 3.30772 1.2351
rclavicle 1.29583e-014 2.5842e-014
rhumerus 14.6997 -22.283 3.80908
rradius 112.484
rwrist -53.9502
rhand -5.58028 -44.8099
rfingers 7.12502
rthumb 20.2358 -73.7758
lclavicle 1.29583e-014 2.5842e-014
lhumerus 40.8411 29.2524 -6.59542
lradius 31.0885
lwrist 34.5671
lhand -20.6673 -16.9361
lfingers 7.12502
lthumb 5.69562 12.9673
rfemur -11.542 7.06688 2.41663
rtibia 17.495
rfoot 21.0134 -7.35671
rtoes -33.9561
lfemur -29.5172 -3.11882 -18.5222
ltibia 26.7066
lfoot -14.9498 6.84406
ltoes 8.84665
148
root 4.09499 17.6181 3.14797 19.9457 -4.89034 -6.9315
lowerback -4.12738 -0.960936 6.22952
upperback -8.85664 -1.09935 3.96694
thorax -7.02622 -0.823304 0.716634
lowerneck -14.0179 4.98868 1.52468
upperneck 35.6257 6.28316 1.77829
head 14.6184 3.12052 1.48314
rclavicle -6.22444e-015 0
rhumerus 15.0934 -22.1652 3.4924
rradius 112.388
rwrist -53.6228
rhand -5.93343 -44.9231
rfingers 7.12502
rthumb 19.8963 -73.9247
lclavicle -6.22444e-015 0
lhumerus 40.8547 29.1756 -6.60215
lradius 31.2698
lwrist 34.7813
lhand -18.7107 -16.5993
lfingers 7.12502
lthumb 7.58436 13.2448
rfemur -11.5801 7.07236 2.47525
rtibia 17.6053
rfoot 20.9408 -7.44094
rtoes -34.2218
lfemur -29.5666 -3.07923 -18.4863
ltibia 26.778
lfoot -14.9475 6.73304
ltoes 8.89711
149
root 4.09584 17.6174 3.13291 19.9173 -4.89591 -6.91562
lowerback -3.95202 -0.932384 6.15238
upperback -8.9274 -1.0396 3.97609
thorax -7.19981 -0.791708 0.774712
lowerneck -13.7215 4.78582 0.98252
upperneck 35.7858 6.02421 2.11282
head 14.5857 2.98334 1.66396
rclavicle 2.34814e-014 -3.93594e-014
rhumerus 15.4289 -21.7514 3.26504
rradius 112.262
rwrist -53.4169
rhand -6.30706 -45.0186
rfingers 7.12502
rthumb 19.5372 -74.057
lclavicle 2.34814e-014 -3.93594e-014
lhumerus 40.7422 28.5263 -6.88725
lradius 31.5372
lwrist 35.4631
lhand -19.0283 -16.6983
lfingers 7.12502
lthumb 7.27784 13.1566
rfemur -11.7139 7.10702 2.45376
rtibia 17.7924
rfoot 20.81 -7.41647
rtoes -34.3416
lfemur -29.6209 -3.09009 -18.4905
ltibia 26.8189
lfoot -14.8548 6.70434
ltoes 8.68334
150
root 4.09442 17.617 3.11531 19.9766 -4.96165 -6.80939
lowerback -3.80582 -0.892465 5.95537
upperback -8.95793 -0.973777 3.93371
thorax -7.30896 -0.749263 0.841805
lowerneck -13.4952 4.61268 0.520207
upperneck 35.8092 5.82277 2.33331
head 14.5161 2.86644 1.79276
rclavicle 9.34909e-015 1.63003e-014
rhumerus 15.7914 -21.5014 2.9283
rradius 112.045
rwrist -53.2293
rhand -6.31097 -45.0343
rfingers 7.12502
rthumb 19.5334 -74.0731
lclavicle 9.34909e-015 1.63003e-014
lhumerus 40.8429 28.1347 -6.97334
lradius 31.6862
lwrist 35.8542
lhand -19.7567 -16.7531
lfingers 7.12502
lthumb 6.57474 13.1249
rfemur -11.988 7.19404 2.30735
rtibia 18.0058
rfoot 20.6941 -7.44051
rtoes -34.2429
lfemur -29.7846 -3.12347 -18.579
ltibia 26.8363
lfoot -14.7921 6.71264
ltoes 8.96736
